<?xml version="1.0" encoding="UTF-8" standalone="no"?>
<svg
   xmlns:dc="http://purl.org/dc/elements/1.1/"
   xmlns:cc="http://creativecommons.org/ns#"
   xmlns:rdf="http://www.w3.org/1999/02/22-rdf-syntax-ns#"
   xmlns:svg="http://www.w3.org/2000/svg"
   xmlns="http://www.w3.org/2000/svg"
   xmlns:sodipodi="http://sodipodi.sourceforge.net/DTD/sodipodi-0.dtd"
   xmlns:inkscape="http://www.inkscape.org/namespaces/inkscape"
   version="1.1"
   id="svg2"
   width="317.46033"
   height="327.61905"
   viewBox="0 0 317.46033 327.61905"
   sodipodi:docname="nbsdgames.svg"
   inkscape:version="1.0.2 (e86c870879, 2021-01-15)">
  <metadata
     id="metadata8">
    <rdf:RDF>
      <cc:Work
         rdf:about="">
        <dc:format>image/svg+xml</dc:format>
        <dc:type
           rdf:resource="http://purl.org/dc/dcmitype/StillImage" />
        <dc:title />
      </cc:Work>
    </rdf:RDF>
  </metadata>
  <defs
     id="defs6" />
  <sodipodi:namedview
     pagecolor="#ffffff"
     bordercolor="#666666"
     borderopacity="1"
     objecttolerance="10"
     gridtolerance="10"
     guidetolerance="10"
     inkscape:pageopacity="0"
     inkscape:pageshadow="2"
     inkscape:window-width="820"
     inkscape:window-height="480"
     id="namedview4"
     showgrid="false"
     inkscape:zoom="1.6787791"
     inkscape:cx="246.78486"
     inkscape:cy="288.25699"
     inkscape:window-x="0"
     inkscape:window-y="0"
     inkscape:window-maximized="0"
     inkscape:current-layer="g10"
     inkscape:document-rotation="0" />
  <g
     inkscape:groupmode="layer"
     inkscape:label="Image"
     id="g10">
    <g
       id="g39"
       transform="matrix(1.28,0,0,1.28,-44.444446,-45.866667)">
      <path
         style="fill:#fefe00;stroke-width:2.53968"
         d="M 83.809527,304.76191 H 58.412701 v -6.34921 -6.34921 h -6.349207 -6.349206 v -6.3492 -6.34921 h 12.698413 12.698413 v 6.34921 6.3492 H 83.809527 96.50794 V 273.01587 253.96826 H 77.460321 58.412701 v -6.34921 -6.34921 H 52.063494 45.714288 V 222.22222 203.1746 h 6.349206 6.349207 v -6.3492 -6.34921 h 25.396826 25.396823 v 6.34921 6.3492 h 6.34921 6.34921 v 6.34921 6.34921 H 109.20635 96.50794 v -6.34921 -6.34921 H 83.809527 71.111114 v 19.04762 19.04762 h 19.04762 19.047616 v 6.34921 6.34921 h 6.34921 6.34921 v 19.04761 19.04762 h -6.34921 -6.34921 v 6.34921 6.34921 z"
         id="path49" />
      <path
         style="fill:#fe00fe;stroke-width:2.53968"
         d="M 58.412701,139.68254 H 45.714288 V 82.539683 25.396826 h 12.698413 12.698413 v 6.349206 6.349206 h 6.349207 6.349206 v 12.698413 12.698413 h 6.349207 6.349206 V 44.444445 25.396826 h 12.69841 12.69842 V 82.539683 139.68254 H 109.20635 96.50794 V 126.98413 114.28572 H 90.158734 83.809527 V 101.5873 88.88889 h -6.349206 -6.349207 v 25.39683 25.39682 z"
         id="path47" />
      <path
         style="fill:#fe0000;stroke-width:2.53968"
         d="m 227.3016,142.22222 h -31.74604 v -6.3492 -6.34921 h 6.34921 6.34921 V 85.079366 40.634921 h -6.34921 -6.34921 v -6.349206 -6.349207 h 31.74604 31.74603 v 6.349207 6.349206 h 6.34921 6.3492 V 59.68254 78.730159 h -6.3492 -6.34921 v 6.349207 6.349206 h 6.34921 6.3492 v 19.047618 19.04762 h -6.3492 -6.34921 v 6.34921 6.3492 z m 12.69841,-12.69841 h 6.34921 V 110.47619 91.428572 h -6.34921 -6.34921 v 19.047618 19.04762 z m 0,-50.793651 h 6.34921 V 59.68254 40.634921 h -6.34921 -6.34921 V 59.68254 78.730159 Z"
         id="path45" />
      <path
         style="fill:#00fe00;stroke-width:2.53968"
         d="m 227.3016,307.30159 h -31.74604 v -6.34921 -6.3492 h 6.34921 6.34921 v -44.44445 -44.44444 h -6.34921 -6.34921 v -6.34921 -6.34921 h 31.74604 31.74603 v 6.34921 6.34921 h 6.34921 6.3492 v 44.44444 44.44445 h -6.3492 -6.34921 v 6.3492 6.34921 z m 12.69841,-12.69841 h 6.34921 v -44.44445 -44.44444 h -6.34921 -6.34921 v 44.44444 44.44445 z"
         id="path43" />
      <path
         style="fill:#000000;stroke-width:2.53968"
         d="M 158.73016,327.61905 H 0 V 163.80952 0 h 158.73016 158.73017 v 163.80952 163.80953 z m 68.57144,-20.31746 h 31.74603 v -6.34921 -6.3492 h 6.34921 6.3492 v -44.44445 -44.44444 h -6.3492 -6.34921 v -6.34921 -6.34921 H 227.3016 195.55556 v 6.34921 6.34921 h 6.34921 6.34921 v 44.44444 44.44445 h -6.34921 -6.34921 v 6.3492 6.34921 z m 12.69841,-12.69841 h -6.34921 v -44.44445 -44.44444 h 6.34921 6.34921 v 44.44444 44.44445 z M 83.809527,304.76191 h 25.396823 v -6.34921 -6.34921 h 6.34921 6.34921 v -19.04762 -19.04761 h -6.34921 -6.34921 v -6.34921 -6.34921 H 90.158734 71.111114 V 222.22222 203.1746 H 83.809527 96.50794 v 6.34921 6.34921 h 12.69841 12.69842 v -6.34921 -6.34921 h -6.34921 -6.34921 v -6.3492 -6.34921 H 83.809527 58.412701 v 6.34921 6.3492 h -6.349207 -6.349206 v 19.04762 19.04762 h 6.349206 6.349207 v 6.34921 6.34921 h 19.04762 19.047619 v 19.04761 19.04762 H 83.809527 71.111114 v -6.3492 -6.34921 H 58.412701 45.714288 v 6.34921 6.3492 h 6.349206 6.349207 v 6.34921 6.34921 z M 227.3016,142.22222 h 31.74603 v -6.3492 -6.34921 h 6.34921 6.3492 V 110.47619 91.428572 h -6.3492 -6.34921 v -6.349206 -6.349207 h 6.34921 6.3492 V 59.68254 40.634921 h -6.3492 -6.34921 V 34.285715 27.936508 H 227.3016 195.55556 v 6.349207 6.349206 h 6.34921 6.34921 v 44.444445 44.444444 h -6.34921 -6.34921 v 6.34921 6.3492 z m 12.69841,-12.69841 H 233.6508 V 110.47619 91.428572 h 6.34921 6.34921 v 19.047618 19.04762 z m 0,-50.793651 H 233.6508 V 59.68254 40.634921 h 6.34921 6.34921 V 59.68254 78.730159 Z M 58.412701,139.68254 H 71.111114 V 114.28572 88.88889 h 6.349207 6.349206 v 12.69841 12.69842 h 6.349207 6.349206 v 12.69841 12.69841 h 12.69841 12.69842 V 82.539683 25.396826 H 109.20635 96.50794 V 44.444445 63.492064 H 90.158734 83.809527 V 50.793651 38.095238 H 77.460321 71.111114 V 31.746032 25.396826 H 58.412701 45.714288 v 57.142857 57.142857 z"
         id="path41" />
    </g>
  </g>
</svg>
